<?xml version="1.0" standalone="no"?>
<!DOCTYPE svg PUBLIC "-//W3C//DTD SVG 20010904//EN"
 "http://www.w3.org/TR/2001/REC-SVG-20010904/DTD/svg10.dtd">
<svg version="1.0" xmlns="http://www.w3.org/2000/svg"
 width="1280.000000pt" height="1280.000000pt" viewBox="0 0 1280.000000 1280.000000"
 preserveAspectRatio="xMidYMid meet">

<g transform="translate(0.000000,1280.000000) scale(0.100000,-0.100000)"
fill="#3f0c08" stroke="none">
<path d="M6085 12790 c-629 -33 -1264 -160 -1837 -366 -1191 -431 -2215 -1188
-2972 -2199 -569 -759 -973 -1667 -1150 -2580 -88 -457 -119 -772 -119 -1240
-1 -433 17 -651 84 -1065 171 -1053 631 -2091 1295 -2920 355 -445 799 -874
1223 -1183 951 -692 2013 -1098 3191 -1219 173 -18 1027 -18 1210 0 681 67
1355 243 1981 518 1449 636 2637 1824 3273 3273 275 626 451 1300 518 1981 18
183 18 1037 0 1210 -121 1178 -527 2240 -1219 3191 -363 497 -902 1032 -1403
1391 -319 228 -580 385 -920 554 -712 353 -1510 575 -2295 639 -229 18 -653
26 -860 15z m239 -1507 c62 -52 129 -140 177 -237 l40 -82 -25 -54 c-14 -30
-23 -56 -21 -59 3 -2 46 36 97 85 114 110 198 170 312 225 86 42 89 42 103 23
68 -87 117 -351 80 -424 -7 -14 -46 -43 -92 -68 -119 -66 -230 -148 -302 -227
-60 -64 -102 -125 -87 -125 3 0 36 28 72 61 187 173 369 275 596 333 134 35
336 60 336 41 0 -3 -7 -51 -15 -108 -46 -306 -152 -534 -335 -718 -171 -173
-376 -281 -655 -344 -117 -26 -125 -30 -125 -52 0 -13 9 -15 63 -9 34 4 74 10
90 13 17 4 27 1 27 -7 0 -6 -59 -98 -130 -203 l-130 -192 10 -445 c5 -245 14
-915 20 -1490 5 -575 15 -1472 20 -1995 13 -1231 30 -3187 30 -3511 l0 -254
-59 0 -59 0 -6 273 c-6 276 -12 757 -46 3752 -27 2270 -38 3190 -44 3447 l-5
216 -145 194 c-80 106 -142 196 -138 200 4 3 41 3 82 -2 57 -5 78 -4 89 6 8 7
13 16 10 18 -3 3 -52 12 -110 21 -453 68 -759 276 -942 640 -63 126 -146 397
-133 432 6 14 23 15 139 10 210 -10 381 -51 552 -132 77 -37 213 -126 288
-188 57 -48 72 -42 27 10 -87 102 -234 204 -380 264 -41 17 -86 42 -100 55
-24 24 -25 28 -25 162 0 146 16 226 54 273 l19 23 58 -18 c123 -38 257 -118
385 -228 39 -33 73 -58 76 -54 3 3 -7 26 -22 52 -34 58 -31 76 34 209 52 106
148 225 181 225 10 0 38 -17 64 -37z m2917 -673 c18 -10 19 -24 19 -319 l0
-308 -96 -89 c-181 -167 -199 -184 -205 -184 -4 0 -9 75 -13 168 -3 92 -9 218
-12 281 l-7 113 -51 -6 c-163 -20 -484 -126 -683 -227 -570 -289 -1011 -786
-1228 -1384 -71 -196 -107 -378 -125 -625 -11 -152 -3 -970 10 -970 15 0 554
546 945 955 203 213 1244 1259 1397 1404 37 35 70 62 73 59 7 -7 20 -929 19
-1408 -1 -541 -16 -667 -121 -975 -279 -823 -1099 -1544 -2058 -1809 -150 -41
-343 -74 -464 -78 l-85 -3 -7 32 c-11 55 -20 238 -11 250 4 7 123 36 263 63
295 59 395 88 603 176 782 331 1320 939 1505 1696 59 242 63 291 68 816 3 278
1 488 -4 493 -5 5 -136 -120 -318 -304 -1080 -1088 -2117 -2128 -2119 -2125
-2 1 -8 352 -15 778 -12 823 -8 990 29 1234 60 392 204 750 436 1083 390 559
1005 989 1642 1147 237 59 560 94 613 66z m-5524 -115 c644 -85 1278 -420
1731 -918 242 -265 406 -531 541 -877 56 -146 110 -377 136 -581 20 -165 44
-753 62 -1523 5 -248 4 -288 -8 -281 -13 8 -120 106 -334 305 -44 41 -134 125
-200 185 -66 61 -187 173 -270 250 -83 77 -297 275 -475 440 -178 165 -421
390 -540 500 -541 502 -692 640 -702 644 -7 2 -8 -39 -4 -135 4 -77 13 -276
21 -444 16 -341 25 -425 61 -587 175 -786 725 -1415 1524 -1743 265 -109 389
-140 800 -200 80 -12 151 -26 158 -32 13 -11 17 -198 5 -258 l-6 -33 -141 6
c-172 7 -310 28 -481 72 -855 222 -1612 797 -1968 1495 -73 143 -114 247 -157
395 -75 258 -94 438 -110 1027 -6 222 -15 573 -22 781 -6 207 -9 380 -5 383 6
7 370 -315 662 -586 28 -26 147 -136 265 -246 229 -212 332 -309 555 -524 215
-207 541 -517 630 -600 44 -40 103 -94 130 -120 28 -25 100 -91 160 -145 l110
-99 3 69 c6 130 -18 779 -33 910 -40 346 -130 624 -290 902 -314 544 -804 945
-1395 1143 -125 42 -392 100 -458 100 l-42 0 -2 -281 -3 -281 -157 136 c-157
136 -158 137 -158 179 0 23 -5 159 -11 301 -11 246 -10 260 7 273 25 18 261
17 411 -2z m3613 -6126 c50 -15 129 -75 153 -116 22 -38 16 -67 -19 -90 -30
-19 -55 -10 -113 43 -47 41 -103 58 -151 44 -51 -15 -77 -36 -90 -75 -26 -78
23 -142 227 -297 165 -125 210 -199 200 -323 -8 -105 -67 -193 -162 -243 -41
-21 -64 -26 -125 -27 -41 0 -87 3 -101 7 -41 12 -145 93 -179 139 -35 49 -37
72 -10 99 34 34 63 26 115 -35 57 -68 94 -88 160 -88 111 0 192 91 171 194 -9
46 -61 111 -135 170 -178 142 -207 167 -234 204 -82 113 -81 222 5 320 23 26
60 56 83 66 46 21 147 25 205 8z m1665 -14 c162 -80 198 -313 70 -462 -59 -69
-87 -77 -280 -83 l-170 -5 -5 -240 -5 -240 -60 0 -60 0 -3 515 c-1 283 0 521
3 528 4 10 53 12 237 10 208 -3 237 -5 273 -23z m1577 -72 c25 -54 94 -197
153 -318 234 -480 276 -569 278 -589 2 -19 -4 -21 -60 -24 l-63 -3 -82 166
-83 165 -216 0 -217 0 -10 -27 c-5 -16 -38 -90 -72 -165 l-63 -138 -64 0 c-44
0 -65 4 -69 13 -3 8 29 87 71 176 41 89 75 164 75 166 0 1 27 60 60 129 33 70
60 128 60 131 0 2 29 66 64 142 35 76 78 168 94 206 29 63 33 67 64 67 33 0
35 -3 80 -97z m-5436 -248 c141 -165 286 -333 320 -373 l64 -72 2 372 3 373
55 0 55 0 3 -519 c1 -286 -2 -524 -6 -528 -8 -8 -84 72 -342 362 -264 297
-342 384 -350 388 -3 1 -2 -163 2 -365 7 -337 6 -369 -9 -380 -20 -16 -57 -17
-84 -3 -18 10 -19 27 -19 531 l0 520 24 -3 c17 -2 95 -86 282 -303z m-1255
275 c14 -8 19 -21 19 -53 0 -24 -5 -48 -12 -55 -9 -9 -75 -12 -235 -12 l-223
0 0 -155 0 -155 223 0 c160 0 226 -3 235 -12 18 -18 15 -85 -4 -92 -9 -3 -114
-6 -235 -6 l-219 0 0 -195 0 -195 223 0 c160 0 226 -3 235 -12 7 -7 12 -28 12
-48 0 -20 -5 -41 -12 -48 -9 -9 -84 -12 -277 -12 -232 0 -267 2 -283 17 -17
15 -18 44 -18 510 0 480 1 494 20 513 19 19 33 20 276 20 157 0 263 -4 275
-10z m-1532 -34 c10 -11 5 -30 -20 -88 -17 -40 -60 -138 -94 -218 -35 -80
-106 -244 -159 -365 -54 -121 -98 -224 -99 -230 -1 -6 72 -12 198 -15 l199 -5
9 -30 c5 -18 4 -41 -2 -57 l-11 -28 -270 0 -270 0 -16 25 c-20 31 -31 3 210
535 92 200 166 367 166 371 0 4 -76 5 -170 2 -189 -7 -200 -4 -200 52 0 68
-14 65 265 65 206 0 255 -3 264 -14z"/>
<path d="M6330 11147 c-11 -23 -34 -42 -84 -68 -88 -45 -93 -58 -76 -189 11
-86 11 -99 -4 -128 -15 -29 -15 -32 -1 -32 9 0 23 16 31 37 13 29 14 47 5 98
-6 34 -11 83 -11 109 0 42 3 49 31 64 87 47 134 94 127 125 -2 10 -8 4 -18
-16z"/>
<path d="M6368 11042 c-10 -20 -16 -38 -13 -40 5 -6 37 58 33 67 -2 5 -11 -8
-20 -27z"/>
<path d="M6121 10829 c-13 -10 -32 -19 -42 -19 -25 0 -69 -21 -69 -33 0 -5 8
-6 18 -2 9 4 34 11 55 15 41 8 72 31 66 48 -2 6 -14 2 -28 -9z"/>
<path d="M6260 10826 c6 -6 36 -10 68 -9 40 1 62 -3 75 -14 22 -21 31 -12 13
13 -12 16 -27 19 -90 19 -51 1 -73 -2 -66 -9z"/>
<path d="M6380 10689 c0 -5 5 -7 10 -4 6 3 10 8 10 11 0 2 -4 4 -10 4 -5 0
-10 -5 -10 -11z"/>
<path d="M6200 10678 c0 -23 57 -78 81 -78 25 0 24 17 -1 25 -11 4 -34 21 -50
38 -22 24 -30 28 -30 15z"/>
<path d="M6340 10631 c0 -38 -28 -81 -52 -81 -4 0 -8 -4 -8 -10 0 -18 31 -10
55 15 18 17 25 35 25 64 0 22 -4 43 -10 46 -6 4 -10 -10 -10 -34z"/>
<path d="M6010 10555 c0 -4 7 -19 15 -35 16 -30 53 -47 80 -36 22 8 18 25 -4
19 -25 -6 -58 12 -66 37 -6 18 -25 29 -25 15z"/>
<path d="M6302 10480 c0 -14 2 -19 5 -12 2 6 2 18 0 25 -3 6 -5 1 -5 -13z"/>
<path d="M6351 10446 c-1 -38 29 -86 84 -131 25 -20 58 -60 73 -88 54 -103 29
-294 -66 -511 -34 -78 -34 -81 -23 -147 6 -37 11 -96 12 -131 1 -62 1 -63 11
-23 5 22 7 74 3 115 -9 114 -10 112 28 196 57 127 90 256 91 354 1 114 -28
174 -118 254 -45 39 -69 69 -79 99 -14 38 -15 40 -16 13z"/>
<path d="M6110 10407 c0 -4 12 -25 26 -47 24 -37 26 -46 21 -112 -3 -40 -11
-104 -17 -143 -6 -38 -9 -99 -5 -134 7 -77 54 -203 100 -270 33 -48 33 -49 15
-66 -28 -25 -52 -96 -48 -141 l3 -39 13 58 c8 35 27 75 48 102 l34 45 -40 52
c-89 118 -117 270 -86 464 9 56 13 115 10 132 -6 28 -73 118 -74 99z"/>
<path d="M6345 10337 c12 -56 23 -170 18 -183 -4 -10 -10 -11 -23 -4 -28 15
-28 14 -13 -42 19 -76 19 -195 -2 -257 -9 -28 -19 -51 -21 -51 -7 0 -84 162
-84 176 0 7 -5 16 -11 20 -19 12 -5 -116 19 -169 28 -62 92 -158 102 -152 4 3
13 35 20 72 6 36 23 94 37 127 79 187 104 285 87 331 -6 14 -9 13 -30 -6 -18
-17 -24 -19 -27 -8 -27 93 -40 128 -58 149 l-21 25 7 -28z"/>
<path d="M6297 9623 c-23 -26 -31 -71 -17 -88 7 -8 27 -15 45 -15 71 0 85 25
35 60 -16 12 -30 30 -30 41 0 24 -12 24 -33 2z"/>
<path d="M8607 4253 c-4 -3 -7 -78 -7 -165 l0 -158 148 0 c133 0 152 2 192 23
59 29 85 75 84 147 -1 66 -24 114 -67 140 -28 18 -51 20 -188 20 -86 0 -159
-3 -162 -7z"/>
<path d="M10477 4118 c-3 -7 -33 -76 -66 -152 -34 -77 -61 -143 -61 -148 0 -4
68 -8 150 -8 96 0 150 4 150 10 0 17 -152 310 -160 310 -4 0 -10 -6 -13 -12z"/>
</g>
</svg>
